<svg xmlns="http://www.w3.org/2000/svg" viewBox="0 0 265 265"><g fill="#383f4c"><path d="m38.7 90.4c-1.8-1-3.2-2.2-4.3-3.5s-1.8-2.7-2.3-4.2c-.4-1.5-.5-3-.3-4.5s.8-3 1.6-4.5c.4-.7.9-1.4 1.4-1.9s1.1-1 1.6-1.4c.6-.4 1.1-.7 1.7-.9s1.1-.4 1.7-.6l1.2 3.5c-.8.2-1.6.6-2.3 1.1s-1.4 1.2-1.9 2.2c-.6 1-.9 1.9-1 2.9s0 2 .4 2.9c.3.9.9 1.9 1.7 2.7.8.9 1.8 1.7 3 2.4 2.5 1.4 4.7 2 6.7 1.7s3.7-1.5 4.9-3.7c.4-.6.6-1.2.8-1.9s.2-1.2.1-1.8l-4.6-2.7-2.4 4.1-3.1-1.8 4.4-7.5 9.5 5.5c.3 1.2.3 2.5.1 4s-.7 3-1.6 4.5c-.8 1.4-1.8 2.6-3 3.6s-2.5 1.6-4 2-3 .4-4.7.1c-1.8-.6-3.5-1.3-5.3-2.3z"></path><path d="m43.8 59.5 3-3.2 15.5 14.4 7-7.6 2.7 2.5-10 10.9z"></path><path d="m59 44 3.6-2.5 8.2 11.7c.8 1.1 1.5 2 2.2 2.6s1.4 1 2.1 1.2 1.3.2 2 .1c.6-.2 1.3-.4 1.9-.9.6-.4 1.1-.9 1.5-1.5s.6-1.2.7-1.9-.1-1.5-.4-2.4-.9-1.9-1.6-3l-8.2-11.7 3.5-2.4 8 11.5c1.2 1.7 2 3.2 2.5 4.7.5 1.4.6 2.7.5 4s-.6 2.3-1.3 3.3-1.7 1.9-2.8 2.7-2.4 1.4-3.6 1.7-2.4.3-3.6.1-2.4-.9-3.6-1.8-2.4-2.2-3.5-3.9z"></path><path d="m90 30.1-6.7 2.6-1.3-3.5 17.5-6.8 1.4 3.5-6.7 2.6 7.7 19.7-4.1 1.6z"></path><path d="m107.4 20.6 14.8-2.4.6 3.7-10.5 1.7 1 6.3 8.8-1.4.6 3.7-8.8 1.4 1.2 7.3 10.8-1.7.6 3.7-15.2 2.4z"></path><path d="m132.1 17.6 4.5.3 6.7 14.6 2.1 5.5h.2c0-1.3 0-2.7 0-4.2s0-2.9.1-4.3l.8-10.8 4.2.3-1.9 24.8-4.5-.3-6.7-14.5-2.1-5.5h-.2v4.2c0 1.5 0 2.9-.1 4.3l-.8 10.9-4.2-.3z"></path><path d="m170 24.1 13.9 5.7-1.4 3.5-9.8-4-2.7 6.5 8.4 3.4-1.4 3.5-8.4-3.4-3.9 9.6-4.1-1.7z"></path><path d="m188.3 62.1 1.2-11.1-3.1-2.2-5.6 8-3.6-2.5 14.2-20.4 6.9 4.8c1.1.7 2 1.5 2.8 2.4s1.3 1.7 1.7 2.7c.3.9.4 1.9.3 3-.2 1-.6 2.1-1.4 3.3-1.1 1.6-2.3 2.6-3.7 3s-2.9.4-4.4 0l-1.1 11.9zm0-16.2 2.9 2c1.4 1 2.7 1.4 3.8 1.3s2.1-.7 2.9-1.9 1-2.3.6-3.2c-.4-1-1.3-1.9-2.7-2.9l-2.9-2z"></path><path d="m212.7 50.2 10.1 11.1-2.8 2.5-7.1-7.8-4.7 4.3 6 6.6-2.8 2.5-6-6.6-5.4 5 7.4 8.1-2.8 2.5-10.3-11.4z"></path><path d="m228.3 69 7.5 13-3.2 1.9-5.3-9.1-5.5 3.2 4.5 7.7-3.2 1.9-4.5-7.7-6.3 3.7 5.5 9.5-3.2 1.9-7.7-13.3z"></path><path d="m225.2 176.9c7 4.2 8.4 11.2 4.9 16.8-1.8 3-4.4 4.3-6.6 4.8l-1.2-3.5c1.7-.4 3.3-1.2 4.5-3.2 2.3-3.8.9-8.1-3.8-11-4.8-3-9.2-2.5-11.8 1.8-.7 1.2-1.1 2.6-.9 3.6l4.6 2.8 2.4-4 3.1 1.9-4.5 7.4-9.4-5.7c-.6-2.3-.2-5.4 1.6-8.3 3.6-5.8 10.1-7.7 17.1-3.4z"></path><path d="m219.5 207.7-3.1 3.2-15.2-14.7-7.2 7.4-2.7-2.6 10.3-10.6z"></path><path d="m196.2 211.2 7.7 11.6-3.7 2.4-7.9-11.9c-3-4.5-5.7-4.9-8.2-3.2s-3.3 4.3-.3 8.8l7.9 11.9-3.5 2.4-7.7-11.6c-4.5-6.8-3.3-11.5 1.5-14.7s9.6-2.5 14.2 4.3z"></path><path d="m172.5 236 6.8-2.4 1.3 3.5-17.7 6.4-1.3-3.5 6.8-2.4-7.2-19.9 4.2-1.5z"></path><path d="m155 245.2-14.8 2-.5-3.7 10.5-1.4-.9-6.3-8.9 1.2-.5-3.7 8.9-1.2-1-7.3-10.9 1.5-.5-3.7 15.2-2.1z"></path><path d="m130.2 247.6-4.5-.5-6.3-14.7-2-5.5h-.2c0 2.6 0 5.8-.3 8.5l-1.1 10.8-4.2-.4 2.5-24.8 4.5.5 6.3 14.7 2 5.5h.2c.1-2.6 0-5.7.3-8.4l1.1-10.9 4.2.4z"></path><path d="m92.6 240.3-13.8-6 1.5-3.4 9.8 4.2 2.8-6.5-8.3-3.6 1.5-3.4 8.3 3.6 4.1-9.5 4.1 1.8z"></path><path d="m50.8 213.5-9.9-11.2 2.8-2.5 7 7.9 4.8-4.2-5.9-6.7 2.8-2.5 5.9 6.7 5.5-4.9-7.2-8.2 2.8-2.5 10.1 11.6z"></path><path d="m35.5 194.5-7.3-13.1 3.2-1.8 5.2 9.2 5.6-3.1-4.4-7.8 3.2-1.8 4.4 7.8 6.4-3.6-5.3-9.6 3.2-1.8 7.5 13.4z"></path><path d="m82.6 207.3-5.7 7.9-3-2.2 1.3-11-4-2.9-1.2 11.9c-3.1-.9-6.1-.2-8.3 2.8-3.3 4.5-1.1 8.4 3.1 11.4l6.8 4.9 14.6-20.2zm-12.6 17.4-2.8-2.1c-2.8-2-3.7-3.9-2-6.2s4-2.4 6.8-.4l2.7 2.1z"></path><path d="m132.5 8.5c-68.3 0-124 55.6-124 124s55.6 124 124 124 124-55.6 124-124-55.7-124-124-124zm0 4.5c64.9 0 117.9 52.1 119.4 116.7h-34.7c-1.5-45.4-38.9-82-84.7-82s-83.2 36.5-84.7 82h-34.7c1.5-64.6 54.5-116.7 119.4-116.7zm-25 97.3 22 16.7.7 4.1-5.4 5.4c-7.9-1.7-14.2-7.6-15.5-15.4 0-.1-.1-.3-.1-.4v-.4zm-1.2-6.6-2.6-14.8 22 16.7 2.6 14.8zm20 37.6c1.9.3 4 .3 6 .1l3.6 20.7-17.2-13.2zm6.5-21.7-2.6-14.7 15.1-23.2 2.6 14.8zm16.1-16.6 1.4 8-16.3 16.3-.2-1.1zm-13.4 33.1-.6-3.4 16.1-16.1c.3 8.9-6.1 16.9-15.5 19.5zm11.9-69c-.2-1.2-1.4-2-2.6-1.8s-2 1.4-1.8 2.6l1.3 7.3-8.8 13.5-2.5-14.4c-.2-1.2-1.4-2-2.6-1.8s-2 1.4-1.8 2.6l3.3 18.9c0 .1 0 .2.1.2l-4.5 6.9-5.6-4.3-2.3-13.4c-.2-1.2-1.4-2-2.6-1.8s-2 1.4-1.8 2.6l1.5 8.7-13.8-10.5-1.4-8.1c-.2-1.2-1.4-2-2.6-1.8s-2 1.4-1.8 2.6l8 46c0 .1.1.3.1.4v.4c1.5 8.7 7.8 15.4 16 18.2l-6 6-2.6-2c-1-.8-2.4-.6-3.2.4s-.6 2.4.4 3.2l2.1 1.7-37.9 37.9c-13.5-14.4-21.7-33.6-21.7-54.8 0-44.2 36-80.2 80.2-80.2 21.2 0 40.5 8.2 54.8 21.7l-33 33zm-31.9 85 21.4 16.6 1.8 10.5-23.3-18c-1-.8-2.4-.6-3.2.4s-.6 2.4.4 3.2l27.1 21 1.6 9c.2 1.2 1.4 2 2.6 1.8s2-1.4 1.8-2.6l-9.2-53.3c12.7-3.3 21-15.2 18.9-27.5 0-.1-.1-.3-.1-.4-.1-.1-.1-.3-.1-.4l35.3-35.3c13.8 14.4 22.2 33.9 22.2 55.4 0 44.2-36 80.2-80.2 80.2-21.5 0-41-8.5-55.4-22.2zm17 99.9c-65.3 0-118.5-52.7-119.4-117.8h34.7c.9 45.9 38.6 83 84.7 83s83.8-37.1 84.7-83h34.7c-.9 65.1-54.1 117.8-119.4 117.8z"></path><path d="m154.1 194.7c-1.2.2-2.4-.6-2.6-1.8l-8-46c-.2-1.2.6-2.4 1.8-2.6s2.4.6 2.6 1.8l8 46c.2 1.2-.6 2.4-1.8 2.6z"></path><circle cx="115.8" cy="122.6" r="2.3"></circle><circle cx="142.7" cy="95.4" r="2.3"></circle><circle cx="120.6" cy="107.5" r="2.3"></circle></g></svg>