<svg xmlns="http://www.w3.org/2000/svg" xmlns:xlink="http://www.w3.org/1999/xlink" id="Capa_1" x="0px" y="0px" width="611.981px" height="611.982px" viewBox="0 0 611.981 611.982" style="enable-background:new 0 0 611.981 611.982;" xml:space="preserve">
<g>
	<g>
		<g>
			<path d="M288.07,200.408c3.726,3.727,3.726,9.802,0,13.527s-9.802,3.726-13.527,0c-4.841-4.841-8.786-10.718-11.515-17.272h-0.02     c-2.63-6.295-4.064-13.208-4.064-20.359c0-5.279,4.283-9.563,9.563-9.563c5.28,0,9.563,4.283,9.563,9.563     c0,4.662,0.917,9.084,2.55,13.028h-0.02l0.02,0.04C282.333,193.455,284.883,197.22,288.07,200.408z"></path>
			<path d="M157.761,537.884c-5.279,0-9.563-4.283-9.563-9.563c0-5.279,4.283-9.562,9.563-9.562h247.032     c5.279,0,9.563,4.283,9.563,9.562c0,5.28-4.283,9.563-9.563,9.563H157.761z"></path>
			<path d="M274.523,138.67c3.726-3.727,9.802-3.727,13.527,0c3.726,3.725,3.726,9.801,0,13.526     c-3.188,3.188-5.737,6.953-7.431,11.037l-0.02,0.04h0.02c-1.634,3.944-2.55,8.387-2.55,13.029c0,5.278-4.283,9.562-9.563,9.562     c-5.28,0-9.563-4.283-9.563-9.562c0-7.152,1.455-14.045,4.064-20.36h0.02C265.738,149.388,269.702,143.491,274.523,138.67z"></path>
			<path d="M274.583,90.418c-3.725-3.705-3.745-9.762-0.04-13.486c3.706-3.727,9.762-3.746,13.487-0.04     c4.901,4.881,8.865,10.758,11.575,17.271h0.02c2.63,6.295,4.064,13.208,4.064,20.36c0,5.279-4.283,9.563-9.563,9.563     c-5.28,0-9.563-4.283-9.563-9.563c0-4.662-0.917-9.084-2.55-13.049h0.02l-0.02-0.04     C280.261,97.332,277.711,93.567,274.583,90.418z"></path>
			<path d="M288.07,152.197c-3.726,3.727-9.802,3.727-13.527,0c-3.726-3.726-3.726-9.802,0-13.526     c3.188-3.188,5.757-6.953,7.451-11.058l0.02-0.04h-0.02c1.634-3.943,2.55-8.387,2.55-13.029c0-5.278,4.283-9.562,9.563-9.562     s9.563,4.283,9.563,9.562c0,7.152-1.454,14.046-4.064,20.36h-0.02C296.856,141.458,292.911,147.356,288.07,152.197z"></path>
			<path d="M429.396,389.307c-5.279,0-9.563-4.283-9.563-9.562c0-5.28,4.283-9.563,9.563-9.563h123.635     c11.137,0,21.077-4.463,28.209-11.635c7.212-7.271,11.635-17.393,11.635-28.548c0-10.857-4.482-20.738-11.674-27.892     c-7.212-7.152-17.193-11.614-28.17-11.614h-79.03c-5.279,0-9.562-4.283-9.562-9.562c0-5.28,4.282-9.563,9.562-9.563h79.03     c16.177,0,30.919,6.614,41.597,17.212c10.718,10.618,17.354,25.301,17.354,41.418c0,16.336-6.535,31.236-17.232,41.994     c-10.619,10.698-25.321,17.332-41.736,17.332H429.396V389.307z"></path>
			<path d="M423.34,216.744c-5.279,0-9.562-4.283-9.562-9.562c0-5.28,4.282-9.563,9.562-9.563h129.691     c5.278,0,9.562,4.283,9.562,9.563v0.239c-0.02,12.868-0.916,25.679-2.648,38.329l-0.021,0.04h0.021     c-1.753,12.83-4.423,25.44-7.869,37.692c-1.415,5.08-6.694,8.028-11.754,6.614c-5.08-1.415-8.028-6.694-6.614-11.754     c3.188-11.375,5.678-23.149,7.331-35.162h0.021c1.155-8.606,1.933-17.433,2.251-26.438L423.34,216.744L423.34,216.744z      M520.758,314.102c2.132-4.802,7.789-6.953,12.591-4.802c4.802,2.132,6.952,7.79,4.821,12.591     c-5.16,11.535-11.077,22.651-17.651,33.27c-6.634,10.719-14.005,20.979-21.992,30.66c-3.349,4.063-9.345,4.643-13.408,1.295     c-4.063-3.347-4.643-9.344-1.295-13.406c7.411-9.005,14.284-18.567,20.479-28.568     C510.438,335.199,515.977,324.82,520.758,314.102L520.758,314.102z M448.083,409.448c4.044-3.347,10.08-2.789,13.447,1.256     c3.347,4.063,2.789,10.08-1.255,13.446c-12.531,10.359-26.038,19.685-40.343,27.791c-14.104,8.009-29.007,14.862-44.445,20.32     c-4.98,1.754-10.419-0.856-12.172-5.816c-1.753-4.961,0.855-10.42,5.837-12.173c14.424-5.12,28.289-11.495,41.378-18.904     C423.758,427.835,436.349,419.15,448.083,409.448L448.083,409.448z M321.439,466.325c5.198-0.797,10.061,2.749,10.856,7.949     c0.797,5.199-2.749,10.062-7.949,10.877c-7.271,1.116-14.423,1.952-21.396,2.49c-7.292,0.538-14.543,0.837-21.655,0.837     c-77.675,0-148-31.496-198.9-82.396l-0.558-0.618C31.277,354.603,0,284.518,0,207.181c0-5.279,4.283-9.563,9.563-9.563h0.239     h172.683c5.279,0,9.563,4.283,9.563,9.563c0,5.279-4.283,9.562-9.563,9.562H19.304c2.451,68.372,31.078,130.07,76.122,175.332     l0.518,0.46c47.434,47.434,112.977,76.777,185.373,76.777c6.973,0,13.726-0.259,20.221-0.736     C308.45,468.077,315.124,467.301,321.439,466.325z"></path>
			<path d="M166.288,532.585c-2.351,4.7-8.068,6.612-12.77,4.263s-6.614-8.068-4.263-12.77l12.352-24.703     c2.351-4.702,8.068-6.614,12.77-4.265c4.702,2.352,6.614,8.068,4.264,12.771L166.288,532.585z"></path>
			<path d="M413.319,524.058c2.351,4.702,0.438,10.42-4.265,12.771c-4.701,2.351-10.419,0.438-12.77-4.265l-32.513-65.023     c-2.352-4.702-0.438-10.42,4.264-12.771c4.701-2.351,10.419-0.438,12.77,4.264L413.319,524.058z"></path>
			<path d="M189.238,200.408c3.726,3.727,3.726,9.802,0,13.527c-3.725,3.726-9.801,3.726-13.527,0     c-4.821-4.841-8.786-10.718-11.495-17.272h-0.02c-2.63-6.314-4.064-13.208-4.064-20.359c0-5.279,4.283-9.563,9.563-9.563     c5.28,0,9.563,4.283,9.563,9.563c0,4.662,0.917,9.084,2.55,13.028l0,0l0.02,0.04C183.521,193.455,186.07,197.22,189.238,200.408z     "></path>
			<path d="M175.711,138.67c3.726-3.727,9.802-3.727,13.527,0c3.726,3.725,3.726,9.801,0,13.526     c-3.167,3.188-5.717,6.934-7.431,11.037v0.021h0.02c-1.654,3.964-2.57,8.387-2.57,13.049c0,5.278-4.283,9.562-9.563,9.562     c-5.28,0-9.563-4.283-9.563-9.562c0-7.152,1.455-14.045,4.064-20.36h0.02C166.925,149.388,170.89,143.491,175.711,138.67z"></path>
			<path d="M175.731,90.418c-3.726-3.725-3.726-9.801,0-13.526c3.725-3.727,9.801-3.727,13.527,0     c4.841,4.841,8.786,10.718,11.515,17.271l0,0c2.63,6.295,4.064,13.208,4.064,20.36c0,5.279-4.283,9.563-9.563,9.563     c-5.28,0-9.563-4.283-9.563-9.563c0-4.662-0.917-9.084-2.55-13.049h0.02l-0.02-0.021     C181.468,97.371,178.918,93.606,175.731,90.418z"></path>
			<path d="M189.258,152.137c-3.706,3.745-9.762,3.765-13.487,0.06c-3.725-3.706-3.745-9.762-0.04-13.487     c3.147-3.167,5.717-6.952,7.431-11.096l0.02-0.04h-0.02c1.634-3.943,2.55-8.367,2.55-13.028c0-5.279,4.283-9.563,9.563-9.563     c5.28,0,9.563,4.283,9.563,9.563c0,7.151-1.455,14.045-4.064,20.359l0,0C198.063,141.418,194.099,147.296,189.258,152.137z"></path>
			<path d="M386.883,200.408c3.727,3.727,3.727,9.802,0,13.527c-3.726,3.726-9.802,3.726-13.526,0     c-4.82-4.821-8.785-10.698-11.516-17.272l0,0c-2.63-6.314-4.062-13.208-4.062-20.359c0-5.279,4.282-9.563,9.562-9.563     s9.563,4.283,9.563,9.563c0,4.662,0.916,9.084,2.55,13.049h-0.021l0.021,0.04C381.146,193.475,383.695,197.22,386.883,200.408z"></path>
			<path d="M373.336,138.67c3.727-3.727,9.802-3.727,13.527,0c3.725,3.725,3.725,9.801,0,13.526     c-3.188,3.188-5.738,6.934-7.433,11.018l-0.02,0.04h0.02c-1.633,3.964-2.55,8.387-2.55,13.049c0,5.278-4.283,9.562-9.562,9.562     c-5.28,0-9.563-4.283-9.563-9.562c0-7.152,1.454-14.045,4.064-20.36l0,0C364.551,149.348,368.515,143.491,373.336,138.67z"></path>
			<path d="M373.336,90.418c-3.726-3.725-3.726-9.801,0-13.526c3.727-3.727,9.802-3.727,13.527,0     c4.819,4.821,8.785,10.698,11.515,17.271h0.021c2.63,6.315,4.063,13.229,4.063,20.36c0,5.279-4.283,9.563-9.562,9.563     c-5.28,0-9.563-4.283-9.563-9.563c0-4.662-0.917-9.084-2.55-13.049h0.02l-0.02-0.04     C379.073,97.371,376.523,93.606,373.336,90.418z"></path>
			<path d="M386.883,152.197c-3.726,3.727-9.802,3.727-13.526,0c-3.726-3.726-3.726-9.802,0-13.526     c3.188-3.188,5.737-6.953,7.432-11.037l0.02-0.04h-0.02c1.633-3.964,2.55-8.388,2.55-13.05c0-5.278,4.283-9.562,9.563-9.562     c5.279,0,9.562,4.283,9.562,9.562c0,7.152-1.454,14.046-4.063,20.36h-0.021C395.668,141.479,391.704,147.356,386.883,152.197z"></path>
			<path d="M324.527,216.744c-5.279,0-9.563-4.283-9.563-9.562c0-5.28,4.283-9.563,9.563-9.563h55.582     c5.278,0,9.562,4.283,9.562,9.563c0,5.279-4.283,9.562-9.562,9.562H324.527z"></path>
			<path d="M225.715,216.744c-5.279,0-9.563-4.283-9.563-9.562c0-5.28,4.283-9.563,9.563-9.563h55.582     c5.279,0,9.563,4.283,9.563,9.563c0,5.279-4.283,9.562-9.563,9.562H225.715z"></path>
			<path d="M198.462,403.252c4.841,2.031,7.112,7.63,5.08,12.471s-7.63,7.112-12.471,5.08c-7.152-3.028-13.925-6.275-20.241-9.722     l-0.498-0.26c-6.475-3.525-12.73-7.331-18.687-11.376c-4.363-2.947-5.519-8.885-2.57-13.268c2.949-4.363,8.885-5.52,13.268-2.57     c5.578,3.767,11.296,7.271,17.093,10.42l0.498,0.26C186.15,397.654,192.346,400.663,198.462,403.252L198.462,403.252z      M130.867,357.631c3.726,3.726,3.726,9.802,0,13.525c-3.725,3.727-9.801,3.727-13.527,0c-5.021-5.02-10.041-10.577-14.961-16.534     c-4.801-5.838-9.303-11.793-13.328-17.79c-4.124-6.116-8.048-12.592-11.674-19.266l-0.239-0.458     c-3.427-6.335-6.594-12.929-9.443-19.703c-3.008-7.112-5.638-14.264-7.869-21.416l-0.139-0.538     c-2.191-7.013-4.044-14.225-5.539-21.556c-1.056-5.16,2.271-10.2,7.431-11.256c5.16-1.057,10.2,2.291,11.256,7.431     c1.354,6.714,3.068,13.348,5.06,19.842l0.14,0.398c2.131,6.853,4.542,13.447,7.191,19.703c2.59,6.116,5.479,12.112,8.646,17.989     l0.299,0.519c3.227,5.978,6.813,11.873,10.698,17.61c3.905,5.776,8.009,11.275,12.212,16.355     C121.205,347.531,125.827,352.591,130.867,357.631z"></path>
		</g>
	</g>
</g>
<g>
</g>
<g>
</g>
<g>
</g>
<g>
</g>
<g>
</g>
<g>
</g>
<g>
</g>
<g>
</g>
<g>
</g>
<g>
</g>
<g>
</g>
<g>
</g>
<g>
</g>
<g>
</g>
<g>
</g>
</svg>